<svg width="36" height="36" viewBox="0 0 36 36" fill="none" xmlns="http://www.w3.org/2000/svg">
<path fill-rule="evenodd" clip-rule="evenodd" d="M18 0C27.9411 0 36 8.0589 36 18C36 27.9412 27.9411 36.0001 18 36.0001C8.0588 36.0001 0 27.9412 0 18C0 8.0589 8.0588 0 18 0Z" fill="white"/>
<path d="M17.2364 12.5238C16.9725 12.7863 16.978 13.2146 17.2474 13.4718L20.5596 16.6446H12.6597C12.2941 16.6446 12 16.9403 12 17.3079V18.1924C12 18.5599 12.2941 18.8556 12.6597 18.8556H20.5596L17.2474 22.0284C16.9807 22.2854 16.9752 22.7139 17.2364 22.9765L17.8466 23.59C18.1022 23.8499 18.5199 23.8499 18.7784 23.59L24.1219 18.2172C24.3803 17.9602 24.3803 17.5401 24.1219 17.2803L18.7784 11.9102C18.5227 11.6504 18.1049 11.6504 17.8466 11.9102L17.2364 12.5238Z" fill="#CD7A1D"/>
</svg>
