<svg width="8" height="13" viewBox="0 0 8 13" fill="none" xmlns="http://www.w3.org/2000/svg">
<path d="M4.25 4.95833H7.4375L7.08333 6.375H4.25V12.75H2.83333V6.375H0V4.95833H2.83333V3.62667C2.83333 3.03167 2.86167 2.56889 2.91833 2.23833C2.975 1.96444 3.06944 1.7 3.20167 1.445C3.45667 0.982222 3.81556 0.628056 4.27833 0.3825C4.52389 0.240833 4.78833 0.146388 5.07167 0.0991659C5.40222 0.0330553 5.865 0 6.46 0C6.82833 0 7.14944 0.0330553 7.42333 0.0991659V1.41667H6.46C6.00667 1.41667 5.67847 1.43083 5.47542 1.45917C5.27236 1.4875 5.09528 1.54417 4.94417 1.62917C4.72694 1.7425 4.56167 1.90306 4.44833 2.11083C4.37278 2.26194 4.32083 2.43903 4.2925 2.64208C4.26417 2.84514 4.24528 3.17333 4.23583 3.62667V4.95833H4.25Z" fill="black"/>
</svg>
