<svg width="15" height="15" viewBox="0 0 15 15" fill="none" xmlns="http://www.w3.org/2000/svg">
<path d="M7.08333 4.95817C6.69611 4.95817 6.33958 5.05262 6.01375 5.2415C5.68792 5.43039 5.43056 5.68775 5.24167 6.01359C5.05278 6.33942 4.95833 6.69595 4.95833 7.08317C4.95833 7.47039 5.05278 7.82692 5.24167 8.15275C5.43056 8.47859 5.68792 8.73595 6.01375 8.92484C6.33958 9.11373 6.69611 9.20817 7.08333 9.20817C7.47056 9.20817 7.82708 9.11373 8.15292 8.92484C8.47875 8.73595 8.73611 8.47859 8.925 8.15275C9.11389 7.82692 9.20833 7.47039 9.20833 7.08317C9.20833 6.69595 9.11389 6.33942 8.925 6.01359C8.73611 5.68775 8.47875 5.43039 8.15292 5.2415C7.82708 5.05262 7.47056 4.95817 7.08333 4.95817ZM7.08333 3.5415C7.72556 3.5415 8.31819 3.6997 8.86125 4.01609C9.40431 4.33248 9.83403 4.7622 10.1504 5.30525C10.4668 5.84831 10.625 6.44095 10.625 7.08317C10.625 7.72539 10.4668 8.31803 10.1504 8.86109C9.83403 9.40414 9.40431 9.83386 8.86125 10.1503C8.31819 10.4666 7.72556 10.6248 7.08333 10.6248C6.44111 10.6248 5.84847 10.4666 5.30542 10.1503C4.76236 9.83386 4.33264 9.40414 4.01625 8.86109C3.69986 8.31803 3.54167 7.72539 3.54167 7.08317C3.54167 6.44095 3.69986 5.84831 4.01625 5.30525C4.33264 4.7622 4.76236 4.33248 5.30542 4.01609C5.84847 3.6997 6.44111 3.5415 7.08333 3.5415ZM11.6875 3.35734C11.6875 3.60289 11.6001 3.81303 11.4254 3.98775C11.2507 4.16248 11.0429 4.24984 10.8021 4.24984C10.5613 4.24984 10.3535 4.16248 10.1788 3.98775C10.004 3.81303 9.91667 3.60525 9.91667 3.36442C9.91667 3.12359 10.004 2.91581 10.1788 2.74109C10.3535 2.56636 10.5613 2.479 10.8021 2.479C11.0429 2.479 11.2507 2.56636 11.4254 2.74109C11.6001 2.91581 11.6875 3.12123 11.6875 3.35734ZM7.08333 1.4165C6.21444 1.4165 5.62417 1.41886 5.3125 1.42359C5.00083 1.42831 4.64194 1.44011 4.23583 1.459C3.72583 1.47789 3.30083 1.55345 2.96083 1.68567C2.66806 1.799 2.41069 1.96664 2.18875 2.18859C1.96681 2.41053 1.79917 2.66789 1.68583 2.96067C1.55361 3.30067 1.47806 3.72567 1.45917 4.23567C1.44028 4.62289 1.42847 4.96998 1.42375 5.27692C1.41903 5.58387 1.41667 6.18595 1.41667 7.08317C1.41667 7.95206 1.41903 8.54234 1.42375 8.854C1.42847 9.16567 1.44028 9.52456 1.45917 9.93067C1.47806 10.4407 1.55361 10.8657 1.68583 11.2057C1.79917 11.4984 1.96681 11.7558 2.18875 11.9778C2.41069 12.1997 2.66806 12.3626 2.96083 12.4665C3.30083 12.6082 3.72583 12.6884 4.23583 12.7073C4.62306 12.7262 4.97014 12.738 5.27708 12.7428C5.58403 12.7475 6.18611 12.7498 7.08333 12.7498C7.95222 12.7498 8.5425 12.7475 8.85417 12.7428C9.16583 12.738 9.52472 12.7262 9.93083 12.7073C10.4408 12.6884 10.8658 12.6129 11.2058 12.4807C11.4986 12.3673 11.756 12.1997 11.9779 11.9778C12.1999 11.7558 12.3628 11.4984 12.4667 11.2057C12.6083 10.8657 12.6886 10.4407 12.7075 9.93067C12.7264 9.54345 12.7382 9.19636 12.7429 8.88942C12.7476 8.58248 12.75 7.98039 12.75 7.08317C12.75 6.21428 12.7476 5.624 12.7429 5.31234C12.7382 5.00067 12.7264 4.64178 12.7075 4.23567C12.6886 3.72567 12.6131 3.30067 12.4808 2.96067C12.3675 2.66789 12.1999 2.41053 11.9779 2.18859C11.756 1.96664 11.4986 1.799 11.2058 1.68567C10.8658 1.55345 10.4408 1.47789 9.93083 1.459C9.54361 1.44011 9.19653 1.42831 8.88958 1.42359C8.58264 1.41886 7.98056 1.4165 7.08333 1.4165ZM7.08333 -0.000163078C8.00889 -0.000163078 8.64167 0.00455856 8.98167 0.0140038C9.265 0.0140038 9.605 0.023448 10.0017 0.0423365C10.6628 0.0706701 11.2342 0.179281 11.7158 0.36817C12.1975 0.557059 12.6178 0.830948 12.9767 1.18984C13.3356 1.54873 13.6094 1.969 13.7983 2.45067C13.9872 2.93234 14.0958 3.50373 14.1242 4.16484C14.1431 4.57095 14.1525 4.91095 14.1525 5.18484C14.1619 5.54373 14.1667 6.18123 14.1667 7.09734C14.1667 8.01345 14.1619 8.6415 14.1525 8.9815C14.1525 9.26484 14.1431 9.60484 14.1242 10.0015C14.0958 10.6626 13.9872 11.234 13.7983 11.7157C13.6094 12.1973 13.3356 12.6176 12.9767 12.9765C12.6178 13.3354 12.1975 13.6093 11.7158 13.7982C11.2342 13.9871 10.6628 14.0957 10.0017 14.124C9.59556 14.1429 9.25556 14.1523 8.98167 14.1523C8.62278 14.1618 7.98528 14.1665 7.06917 14.1665C6.15306 14.1665 5.525 14.1618 5.185 14.1523C4.90167 14.1523 4.56167 14.1429 4.165 14.124C3.50389 14.0957 2.9325 13.9871 2.45083 13.7982C1.96917 13.6093 1.54889 13.3354 1.19 12.9765C0.831111 12.6176 0.557222 12.1973 0.368333 11.7157C0.179444 11.234 0.0708333 10.6626 0.0425 10.0015C0.0236111 9.59539 0.0141667 9.25539 0.0141667 8.9815C0.00472222 8.62261 0 7.98511 0 7.069C0 6.15289 0.00472222 5.52484 0.0141667 5.18484C0.0141667 4.9015 0.0236111 4.5615 0.0425 4.16484C0.0708333 3.50373 0.179444 2.93234 0.368333 2.45067C0.557222 1.969 0.831111 1.54873 1.19 1.18984C1.54889 0.830948 1.96917 0.557059 2.45083 0.36817C2.9325 0.179281 3.50389 0.0706701 4.165 0.0423365C4.57111 0.023448 4.91111 0.0140038 5.185 0.0140038C5.54389 0.00455856 6.17667 -0.000163078 7.08333 -0.000163078Z" fill="black"/>
</svg>
