<svg width="12" height="12" viewBox="0 0 12 12" fill="none" xmlns="http://www.w3.org/2000/svg">
<path d="M9.35667 8.52833L11.8533 11.025L11.025 11.8533L8.52833 9.35667C8.06944 9.72222 7.56778 10.0022 7.02333 10.1967C6.44778 10.3989 5.85667 10.5 5.25 10.5C4.30111 10.5 3.41833 10.2628 2.60167 9.78833C1.80833 9.32167 1.18222 8.69167 0.723333 7.89833C0.241111 7.08167 0 6.19889 0 5.25C0 4.30111 0.241111 3.41833 0.723333 2.60167C1.18222 1.80833 1.80833 1.18222 2.60167 0.723332C3.41833 0.24111 4.30111 -9.53674e-07 5.25 -9.53674e-07C6.19889 -9.53674e-07 7.08167 0.24111 7.89833 0.723332C8.69167 1.18222 9.32167 1.80833 9.78833 2.60167C10.2628 3.41833 10.5 4.30111 10.5 5.25C10.5 5.85667 10.3989 6.44778 10.1967 7.02333C10.0022 7.56778 9.72222 8.06944 9.35667 8.52833ZM8.17833 8.09667C8.54389 7.72333 8.82778 7.29555 9.03 6.81333C9.23222 6.31555 9.33333 5.79444 9.33333 5.25C9.33333 4.51111 9.14667 3.82278 8.77333 3.185C8.41556 2.57055 7.92944 2.08444 7.315 1.72667C6.67722 1.35333 5.98889 1.16667 5.25 1.16667C4.51111 1.16667 3.82278 1.35333 3.185 1.72667C2.57056 2.08444 2.08444 2.57055 1.72667 3.185C1.35333 3.82278 1.16667 4.51111 1.16667 5.25C1.16667 5.98889 1.35333 6.67722 1.72667 7.315C2.08444 7.92944 2.57056 8.41555 3.185 8.77333C3.82278 9.14667 4.51111 9.33333 5.25 9.33333C5.79444 9.33333 6.31556 9.23222 6.81333 9.03C7.29556 8.82778 7.72333 8.54389 8.09667 8.17833L8.17833 8.09667Z" fill="white"/>
</svg>
